<?xml version="1.0" standalone="no"?>
<!DOCTYPE svg PUBLIC "-//W3C//DTD SVG 20010904//EN"
 "http://www.w3.org/TR/2001/REC-SVG-20010904/DTD/svg10.dtd">
<svg version="1.0" xmlns="http://www.w3.org/2000/svg"
 width="1563.000000pt" height="1563.000000pt" viewBox="0 0 1563.000000 1563.000000"
 preserveAspectRatio="xMidYMid meet">

<g transform="translate(0.000000,1563.000000) scale(0.100000,-0.100000)"
fill="#000000" stroke="none">
<path d="M7470 15593 c-1293 -56 -2552 -434 -3670 -1101 -1269 -757 -2307
-1875 -2965 -3192 -475 -950 -740 -1928 -815 -3005 -14 -194 -14 -787 0 -980
50 -721 178 -1365 401 -2022 548 -1612 1614 -3008 3019 -3953 1158 -778 2499
-1235 3877 -1320 218 -14 762 -14 973 0 669 43 1337 172 1949 377 904 302
1721 744 2436 1318 2113 1696 3195 4356 2865 7043 -237 1926 -1195 3711 -2665
4964 -308 263 -573 459 -880 654 -1157 732 -2452 1146 -3805 1214 -176 9 -552
11 -720 3z m3276 -3730 c234 -43 513 -145 682 -249 180 -111 349 -261 487
-434 170 -213 302 -482 374 -763 27 -106 49 -257 38 -257 -3 0 -29 15 -58 33
-44 27 -62 32 -113 32 l-61 0 -1 80 c-2 172 -84 303 -235 373 -32 15 -59 31
-59 35 0 5 12 24 26 42 58 77 92 231 60 280 -9 14 -23 25 -31 25 -17 0 -16 3
-19 -75 -3 -84 -28 -150 -86 -224 -28 -36 -50 -70 -50 -76 0 -6 35 -22 77 -35
98 -31 159 -72 200 -133 41 -62 56 -115 56 -199 0 -76 -21 -121 -95 -200 -35
-37 -51 -48 -75 -48 -20 0 -55 -16 -97 -44 -36 -24 -69 -40 -72 -35 -3 5 -41
27 -84 49 -96 48 -138 88 -179 171 -50 101 -40 208 29 302 36 49 37 57 7 57
-48 0 -112 -99 -122 -191 -11 -99 -11 -99 -54 -99 -48 0 -51 7 -51 157 l0 112
56 43 c75 58 122 135 136 224 6 38 12 75 14 82 2 8 31 12 99 12 66 0 105 5
125 15 86 44 77 190 -15 261 -28 21 -54 29 -119 37 l-83 10 -17 51 c-12 33
-37 68 -75 106 -74 75 -119 90 -267 90 -121 0 -123 1 -143 60 -21 62 -59 110
-86 110 -38 0 -40 -23 -6 -71 17 -23 31 -52 31 -65 0 -22 -3 -23 -49 -17 -41
5 -54 2 -87 -21 -21 -14 -41 -22 -45 -18 -4 4 -9 46 -11 94 -3 77 -6 91 -33
129 -17 24 -53 55 -85 73 -53 30 -60 31 -170 31 -107 0 -119 -2 -165 -28 -27
-15 -69 -41 -91 -58 l-41 -31 -78 16 c-197 41 -348 4 -475 -115 -30 -29 -79
-63 -108 -77 -64 -29 -179 -45 -285 -39 -46 2 -80 0 -84 -6 -10 -17 37 -47 73
-47 39 0 44 -14 12 -31 -13 -6 -42 -27 -66 -46 -24 -20 -44 -34 -46 -32 -2 2
-18 33 -36 68 -23 42 -55 82 -96 118 -34 30 -68 69 -75 87 -22 55 -50 86 -102
114 -47 24 -62 27 -152 27 -89 0 -106 -3 -155 -27 -30 -15 -72 -43 -93 -62
l-38 -34 -60 41 c-56 39 -66 42 -138 45 -68 4 -84 1 -129 -22 -50 -25 -53 -26
-78 -9 -34 22 -140 21 -184 -2 -32 -16 -34 -16 -80 9 -84 46 -203 33 -287 -30
-40 -30 -48 -30 -87 3 -17 14 -57 39 -89 54 -155 73 -309 33 -380 -99 -21 -38
-45 -63 -87 -92 -33 -22 -65 -50 -71 -63 -6 -12 -25 -43 -42 -69 -30 -45 -31
-46 -56 -30 -41 25 -81 64 -75 74 3 4 20 8 38 8 36 0 72 21 63 37 -3 5 -71 13
-149 16 -192 9 -224 19 -323 108 -44 39 -96 79 -115 89 -106 54 -249 65 -382
29 l-78 -21 -46 42 c-64 59 -123 83 -220 88 -111 6 -170 -14 -240 -82 -57 -56
-74 -97 -74 -183 0 -46 -3 -53 -20 -53 -10 0 -24 9 -31 21 -11 22 -26 22 -116
3 -30 -6 -33 -4 -33 18 0 14 14 38 35 58 43 42 48 80 9 80 -37 0 -90 -59 -107
-118 l-14 -47 -107 -2 c-128 -3 -169 -13 -237 -59 -64 -43 -76 -58 -110 -138
l-26 -61 -79 -5 c-91 -7 -119 -21 -160 -83 -34 -52 -43 -121 -20 -168 26 -55
48 -64 161 -64 l100 0 13 -79 c19 -118 61 -187 148 -247 l45 -30 -3 -132 -3
-132 -29 -3 c-16 -2 -33 1 -40 8 -6 6 -16 47 -22 92 -13 90 -46 148 -102 181
-27 16 -33 17 -38 4 -3 -8 8 -34 25 -58 35 -47 61 -124 61 -178 0 -19 -8 -62
-17 -94 -23 -82 -91 -150 -207 -207 l-85 -42 -50 36 c-34 25 -70 41 -112 50
-42 8 -64 18 -71 32 -6 10 -29 43 -52 73 -36 48 -41 60 -44 121 -10 172 85
300 254 344 38 10 76 25 84 33 13 13 12 17 -10 36 -40 35 -99 112 -120 159
-13 29 -20 65 -20 111 0 65 -1 68 -22 65 -57 -8 -45 -130 26 -264 l43 -81 -54
-23 c-78 -32 -165 -117 -205 -198 -29 -58 -33 -79 -36 -159 l-4 -93 -36 0
c-58 0 -108 -18 -156 -55 -25 -19 -47 -31 -50 -26 -7 11 29 208 60 321 53 201
190 474 334 665 153 204 313 350 517 471 262 155 519 240 830 273 43 5 1318 8
2833 7 l2755 -1 121 -22z m-5383 -156 c28 -14 69 -44 90 -65 l39 -40 66 6 c45
3 76 12 94 25 26 19 34 20 118 10 107 -12 194 -51 254 -112 51 -53 41 -62 -15
-15 -75 63 -121 79 -229 79 -89 0 -99 -2 -160 -35 l-65 -35 2 -46 c2 -43 0
-47 -22 -51 -27 -6 -34 0 -60 52 -24 48 -31 50 -81 32 -40 -15 -45 -15 -84 3
-60 27 -115 22 -166 -14 -28 -19 -58 -31 -86 -33 l-43 -3 -3 75 c-2 60 1 81
17 107 19 30 74 65 131 84 46 15 147 3 203 -24z m5175 -1 c75 -38 93 -67 90
-140 l-3 -61 -49 -3 c-42 -3 -53 1 -77 24 -44 42 -142 33 -160 -14 -8 -22 -12
-24 -19 -12 -6 11 -23 14 -68 12 -58 -4 -61 -5 -77 -37 -19 -42 -29 -49 -60
-41 -18 5 -26 16 -32 48 -10 50 -37 69 -133 94 -125 32 -227 -1 -319 -103 -55
-61 -61 -65 -137 -84 -95 -23 -179 -63 -259 -124 -33 -25 -65 -45 -71 -45 -7
0 -43 -16 -81 -36 -66 -36 -148 -64 -187 -64 -18 0 -18 1 -1 20 10 11 23 20
29 20 31 1 129 53 196 103 97 74 169 111 290 152 82 27 111 42 155 81 101 89
134 112 192 134 49 19 71 21 143 16 47 -3 107 -12 134 -21 77 -24 102 -20 154
24 47 39 95 67 142 82 46 15 154 2 208 -25z m-3398 -88 c51 -31 75 -58 51 -58
-6 0 -40 14 -76 30 -69 32 -132 38 -181 20 -40 -15 -41 -4 -3 19 24 15 51 21
94 21 51 0 70 -5 115 -32z m1376 2 c-28 -11 -52 -17 -54 -15 -7 7 60 34 83 34
11 0 -2 -9 -29 -19z m-919 -19 c43 -20 69 -50 75 -87 5 -31 -2 -31 -53 -1 -67
40 -132 45 -197 17 -29 -13 -59 -32 -67 -44 -15 -20 -15 -20 -15 5 0 28 55 88
105 113 40 21 101 20 152 -3z m592 -11 c37 -21 82 -82 70 -95 -3 -3 -21 3 -40
12 -66 34 -175 29 -271 -12 -14 -6 -18 -2 -18 16 1 30 25 61 70 89 45 27 130
23 189 -10z m-315 -6 c16 -16 23 -99 9 -107 -5 -3 -38 -8 -74 -12 l-66 -7 -6
63 c-4 44 -2 66 6 71 23 14 115 9 131 -8z m-2636 -106 c20 -20 14 -54 -13 -66
-19 -9 -27 -8 -40 4 -19 19 -19 24 1 52 17 25 34 28 52 10z m1756 -12 c29 -22
30 -25 18 -63 -7 -23 -18 -45 -25 -51 -6 -5 -48 -15 -92 -21 -63 -9 -94 -20
-145 -51 -114 -69 -145 -50 -96 56 27 59 69 94 152 129 79 32 149 33 188 1z
m1848 -8 c55 -23 109 -79 140 -142 24 -50 20 -73 -16 -82 -20 -5 -35 3 -74 36
-50 42 -125 70 -188 70 -35 0 -80 30 -89 61 -8 24 18 66 48 79 31 13 123 2
179 -22z m1616 -1 c4 -33 -13 -57 -38 -57 -29 0 -41 55 -18 78 22 22 53 10 56
-21z m-4250 -51 c3 -3 -2 -6 -12 -6 -19 0 -86 26 -86 34 0 6 89 -20 98 -28z
m-1560 18 c16 -5 22 -13 20 -28 -3 -20 -8 -21 -85 -18 -143 7 -201 -22 -290
-143 l-22 -30 0 30 c-1 72 64 151 148 181 37 14 189 18 229 8z m270 -24 c56
-25 95 -60 133 -119 35 -54 36 -71 7 -98 -36 -32 -118 -75 -132 -70 -7 3 -22
23 -33 44 -13 26 -35 46 -68 64 -68 36 -85 61 -85 124 0 85 3 89 72 81 33 -3
81 -15 106 -26z m5962 -60 l0 -90 -42 -21 c-24 -12 -64 -44 -90 -71 l-47 -51
-33 21 c-18 12 -50 30 -70 42 -42 23 -49 50 -24 98 16 30 77 90 118 115 32 20
120 45 161 46 l27 1 0 -90z m362 67 c50 -22 119 -103 101 -120 -3 -3 -19 10
-35 29 -51 58 -79 67 -217 71 -69 2 -127 5 -129 8 -3 2 -2 12 2 21 6 15 20 16
125 11 68 -3 133 -12 153 -20z m-3209 -27 c105 -40 158 -112 112 -150 -19 -15
-92 -9 -190 18 -63 17 -81 17 -180 7 -65 -7 -124 -19 -144 -30 -49 -26 -119
-22 -149 8 -17 18 -22 31 -17 46 10 34 102 88 175 105 101 23 118 25 230 21
78 -2 120 -8 163 -25z m-1678 -26 c17 -7 37 -20 44 -28 8 -10 -6 -6 -38 10
-28 13 -55 24 -60 24 -6 0 -13 5 -17 11 -7 12 15 7 71 -17z m3755 1 c29 -15
50 -43 50 -65 0 -7 -16 2 -35 19 -35 31 -61 36 -140 31 -64 -4 -130 -57 -149
-117 -10 -33 -28 -28 -20 5 11 49 54 103 97 123 52 23 156 25 197 4z m-4389
-8 c54 -25 109 -108 109 -165 0 -33 -14 -19 -29 30 -14 42 -74 101 -128 123
-25 11 -55 14 -97 10 -42 -3 -53 -2 -36 4 37 13 151 12 181 -2z m3919 -38 c58
-26 90 -57 90 -86 0 -23 -23 -32 -35 -13 -17 27 -102 55 -165 55 -69 -1 -112
-18 -177 -71 l-33 -27 0 24 c0 33 22 63 66 89 82 52 180 63 254 29z m-3454 -4
c55 -16 109 -64 119 -107 4 -16 5 -28 2 -28 -2 0 -24 20 -48 44 -49 49 -95 66
-179 66 -70 0 -118 -27 -127 -71 -4 -23 -10 -29 -27 -27 -40 6 -26 48 32 95
50 41 56 43 116 43 34 0 85 -7 112 -15z m2180 -37 c63 -47 164 -189 164 -230
0 -36 -34 -16 -119 71 -47 48 -105 98 -128 110 -47 24 -55 47 -20 61 38 15 72
11 103 -12z m-995 2 c30 -17 23 -36 -25 -66 -24 -15 -79 -68 -122 -116 -64
-73 -83 -88 -104 -86 -42 5 -36 38 25 124 97 137 161 178 226 144z m-341 -42
c30 -15 46 -31 48 -45 4 -26 -12 -30 -170 -37 -98 -4 -109 -3 -140 17 -78 53
-28 82 147 86 56 1 80 -4 115 -21z m750 -8 c0 -5 -4 -10 -9 -10 -6 0 -13 5
-16 10 -3 6 1 10 9 10 9 0 16 -4 16 -10z m467 -69 c49 -38 100 -96 122 -138
30 -57 2 -43 -101 52 -50 47 -98 85 -105 85 -14 0 -18 22 -6 33 15 15 44 5 90
-32z m-2777 7 c60 -30 97 -98 91 -165 -1 -9 -18 -13 -48 -13 -27 0 -84 -7
-128 -15 -44 -8 -119 -20 -168 -26 -104 -13 -106 -16 -138 -136 -22 -82 -23
-84 -69 -109 -68 -37 -93 -76 -98 -149 -6 -108 -37 -145 -120 -145 -66 0 -85
24 -91 116 -4 54 -10 79 -18 78 -7 -1 -31 -2 -53 -2 -25 -1 -47 -9 -60 -22
-19 -19 -20 -33 -20 -205 l0 -186 -26 -26 c-24 -24 -27 -24 -42 -9 -15 14 -17
47 -20 228 -3 235 -1 249 57 301 35 31 44 34 126 41 111 8 154 21 199 58 51
41 84 104 102 189 8 40 20 80 27 88 50 60 255 128 392 130 44 1 73 -5 105 -21z
m2015 12 c-3 -5 -12 -10 -20 -10 -24 0 -111 -77 -181 -159 -100 -118 -113
-108 -28 21 62 93 142 158 196 158 23 0 37 -4 33 -10z m2913 -5 c91 -22 212
-71 249 -103 28 -23 34 -36 42 -94 11 -81 31 -125 79 -173 61 -62 122 -85 225
-85 80 0 90 -2 113 -25 33 -33 64 -102 64 -142 0 -18 -2 -33 -5 -33 -11 0 -52
27 -88 58 -37 32 -73 40 -124 26 -18 -5 -23 -16 -29 -72 -3 -37 -10 -77 -15
-90 -20 -54 -115 -49 -163 9 -21 24 -26 41 -26 82 0 71 -25 114 -96 164 -63
45 -106 53 -140 28 -35 -26 -52 -19 -59 28 -10 58 -52 133 -97 171 -44 38 -96
56 -161 56 -103 0 -122 36 -67 124 52 82 151 106 298 71z m-6148 -1 c0 -3 -4
-13 -10 -23 -13 -25 -59 -32 -152 -25 -71 6 -78 9 -64 22 10 11 46 18 113 22
54 4 101 8 106 8 4 1 7 -1 7 -4z m1880 -2 c0 -5 -6 -16 -13 -27 -16 -20 -31
-7 -21 19 6 16 34 23 34 8z m4947 -12 c50 -22 85 -72 81 -115 -5 -48 -41 -46
-72 4 -29 45 -69 62 -92 39 -8 -8 -18 -34 -22 -58 -9 -56 -35 -65 -51 -19 -23
67 -5 134 43 155 42 18 63 17 113 -6z m-6381 -24 c34 -34 41 -63 28 -113 -7
-24 -60 -54 -81 -46 -17 7 -17 30 1 40 22 13 28 49 11 63 -12 10 -26 11 -52 4
-29 -7 -43 -19 -63 -54 -32 -54 -56 -62 -70 -24 -15 39 3 86 51 128 34 31 46
36 90 36 45 0 55 -4 85 -34z m6912 22 c7 -7 12 -14 12 -17 0 -4 -45 -7 -100
-9 -83 -3 -100 -1 -100 12 0 20 15 24 101 25 46 1 80 -4 87 -11z m-2383 -98
c0 -53 -1 -55 -27 -58 -16 -2 -28 2 -28 8 0 24 -20 -3 -21 -28 -1 -22 -3 -19
-10 13 -6 22 -7 50 -4 63 8 33 43 64 68 60 20 -3 22 -9 22 -58z m-2748 -19 c5
-36 3 -41 -13 -41 -49 1 -71 55 -37 92 14 16 19 17 31 5 7 -8 16 -33 19 -56z
m1504 1 c75 -37 127 -88 164 -163 47 -92 46 -104 -9 -118 -25 -6 -61 -11 -80
-11 -31 0 -36 -4 -42 -27 -25 -113 -48 -155 -92 -171 -44 -15 -60 0 -34 33 48
61 47 128 -3 161 -66 43 -169 2 -206 -81 -14 -31 -24 -42 -35 -38 -23 8 -44
57 -44 101 l0 39 -52 6 c-29 2 -61 1 -70 -4 -24 -13 -24 16 1 81 37 96 91 147
208 196 50 21 71 24 153 21 74 -2 105 -8 141 -25z m1623 -85 c16 -19 18 -34
13 -112 -7 -118 -31 -178 -103 -261 -80 -91 -140 -124 -225 -124 -70 0 -90
-12 -101 -56 -9 -38 6 -48 71 -45 50 2 62 -1 68 -15 13 -33 -23 -44 -146 -44
-115 0 -167 11 -122 25 15 4 21 15 21 35 0 60 -53 43 -111 -37 -24 -32 -47
-60 -52 -62 -5 -2 -18 -12 -29 -23 -27 -27 -31 -18 -18 33 34 130 137 215 286
239 77 12 138 42 207 101 74 63 97 112 107 224 5 52 14 104 20 115 24 45 79
48 114 7z m-3805 17 c38 -8 91 -55 91 -80 0 -15 -4 -14 -27 8 -42 39 -66 48
-130 48 -53 1 -56 2 -39 15 21 16 55 19 105 9z m316 -14 c11 -12 22 -51 30
-102 15 -103 43 -164 108 -234 66 -72 115 -99 216 -118 107 -20 160 -46 213
-105 43 -47 83 -135 76 -166 -2 -13 -16 -6 -62 29 -57 45 -86 57 -86 35 0 -7
-7 -8 -17 -4 -10 3 -78 6 -151 6 l-133 0 -9 25 c-6 14 -10 27 -10 30 0 2 31 4
68 4 42 0 75 5 87 14 18 13 18 15 2 40 -10 14 -32 33 -50 42 -51 27 -138 89
-185 133 -29 28 -52 41 -70 41 -31 0 -79 44 -106 98 -22 43 -37 167 -25 201
19 52 71 67 104 31z m3833 0 c36 -22 46 -48 11 -30 -23 13 -142 9 -174 -5
l-20 -8 20 22 c39 45 109 54 163 21z m-2840 -16 c38 -15 39 -22 12 -74 -11
-22 -20 -46 -20 -54 0 -27 -42 -46 -102 -46 -39 0 -58 4 -59 13 -5 61 22 138
58 167 27 21 48 20 111 -6z m1496 17 c42 -17 107 -157 79 -174 -4 -3 -37 -7
-72 -8 -71 -4 -64 -10 -105 83 -36 79 -35 83 28 99 44 10 42 10 70 0z m-1740
-40 c3 -5 -1 -14 -9 -21 -11 -9 -47 -11 -133 -7 -167 7 -185 21 -37 27 66 4
132 7 147 8 15 1 29 -2 32 -7z m-1370 -11 c45 -17 21 -37 -54 -44 -37 -3 -76
-9 -85 -13 -15 -5 -16 -3 -7 14 13 23 54 42 114 52 4 0 18 -3 32 -9z m4751 -4
c33 -14 73 -61 61 -73 -3 -3 -14 2 -25 11 -13 12 -43 19 -95 23 -64 5 -76 9
-76 24 0 9 6 20 13 22 25 11 89 7 122 -7z m-3112 -207 c8 -13 3 -23 -27 -49
-20 -18 -43 -45 -51 -60 l-14 -28 -188 5 c-213 6 -255 13 -295 53 -22 23 -26
33 -19 52 15 42 56 47 330 45 222 -2 255 -4 264 -18z m1699 11 l219 0 26 -26
c42 -42 18 -54 -129 -68 -67 -6 -129 -15 -135 -19 -7 -5 -13 -4 -13 1 0 5 -50
12 -110 15 -105 5 -113 7 -185 47 -41 23 -75 46 -75 52 0 8 29 9 92 4 50 -3
190 -6 310 -6z m-3675 -69 c46 -21 73 -62 73 -110 0 -43 -14 -46 -47 -10 -56
60 -115 75 -160 39 -33 -26 -53 -25 -53 0 0 49 61 99 120 99 14 0 44 -8 67
-18z m5058 -34 c54 -31 66 -65 38 -114 -28 -48 -40 -52 -35 -11 5 43 -43 94
-80 85 -25 -7 -61 -36 -76 -63 -7 -13 -13 -14 -31 -5 -25 14 -26 31 -6 71 31
61 118 78 190 37z m401 2 c11 -12 -2 -14 -81 -14 -95 0 -110 5 -77 25 23 14
140 6 158 -11z m-5059 -4 c23 -16 23 -24 7 -105 l-6 -25 -12 30 c-27 63 -79
86 -119 54 -22 -17 -27 -29 -27 -65 0 -37 -3 -44 -20 -44 -29 0 -46 42 -34 87
13 54 60 83 133 83 35 0 65 -6 78 -15z m355 -11 c31 -4 64 -18 95 -41 49 -36
41 -37 -37 -7 -32 13 -74 18 -147 18 -90 1 -103 3 -103 18 0 26 65 30 192 12z
m3966 -2 c50 -15 18 -27 -80 -33 -94 -5 -110 -9 -178 -43 -71 -36 -74 -37 -50
-12 67 73 213 114 308 88z m-2634 -36 c51 -21 110 -85 146 -160 30 -60 31 -68
20 -96 -27 -66 -78 -56 -122 25 -32 60 -70 95 -103 95 -35 0 -85 46 -85 79 0
62 68 89 144 57z m1255 4 c50 -26 25 -95 -47 -129 -26 -12 -54 -26 -62 -30 -8
-4 -27 -29 -41 -56 -29 -53 -76 -88 -111 -83 -19 2 -24 10 -26 46 -4 49 41
144 92 195 56 55 148 83 195 57z m-1487 -78 c11 -11 -9 -12 -117 -7 -177 10
-197 26 -28 23 93 -2 136 -7 145 -16z m1632 12 c18 -7 12 -24 -10 -24 -8 0
-14 7 -14 15 0 17 2 18 24 9z m-3620 -29 c-3 -7 -12 -16 -20 -19 -8 -3 -13 -2
-11 2 2 4 7 15 10 25 4 10 11 16 16 12 6 -3 8 -12 5 -20z m916 -141 c122 -58
220 -182 250 -315 15 -69 8 -109 -21 -109 -44 0 -169 62 -195 96 -14 18 -51
50 -82 70 -32 20 -88 58 -127 84 -85 58 -135 84 -143 75 -4 -3 3 -24 16 -45
20 -36 17 -60 -7 -46 -11 7 -64 -52 -85 -93 -19 -36 -32 -41 -113 -41 l-66 0
6 37 c18 111 141 249 263 296 58 23 82 26 154 24 71 -2 96 -7 150 -33z m4074
-3 c94 -46 168 -118 211 -203 19 -39 35 -81 35 -94 0 -23 -2 -24 -88 -24 l-88
0 -62 72 c-66 76 -71 88 -47 108 17 14 20 30 6 30 -6 0 -44 -31 -85 -70 -42
-38 -83 -70 -92 -70 -41 0 -110 -52 -149 -113 -38 -59 -43 -63 -99 -76 -40
-10 -70 -11 -95 -5 -33 8 -36 12 -39 51 -4 48 21 150 49 206 25 47 92 116 150
153 130 82 272 95 393 35z m-2389 -61 c3 -6 -1 -7 -9 -4 -18 7 -21 14 -7 14 6
0 13 -4 16 -10z m-596 -32 c56 -21 134 -68 147 -89 7 -11 -50 -3 -71 10 -5 3
-64 24 -130 46 -137 46 -165 72 -65 61 35 -4 88 -17 119 -28z m-496 10 c22
-18 32 -64 15 -70 -29 -10 -138 8 -165 28 -54 40 -49 43 103 52 16 1 38 -4 47
-10z m2207 4 c0 -4 -55 -26 -122 -48 -68 -22 -132 -44 -143 -49 l-20 -8 20 23
c25 29 89 58 168 75 74 16 97 18 97 7z m-885 -47 c0 -15 -8 -21 -33 -23 -18
-2 -40 2 -49 9 -13 12 -13 14 4 26 27 21 78 13 78 -12z m-1506 -77 c53 -65 58
-81 17 -55 -57 38 -99 58 -112 53 -15 -6 -48 40 -39 54 3 6 24 10 45 10 36 0
43 -5 89 -62z m5890 37 c17 -8 47 -31 66 -51 30 -29 35 -42 35 -79 0 -56 -14
-58 -61 -9 -54 56 -81 66 -157 59 -74 -7 -112 -21 -112 -42 0 -20 -20 -16 -21
5 -4 56 38 114 96 132 40 12 116 5 154 -15z m-8674 -5 c23 -11 47 -31 53 -45
14 -31 9 -31 -29 -3 -21 16 -48 23 -93 26 -77 5 -127 -18 -166 -75 -19 -28
-26 -33 -28 -19 -6 28 46 93 91 115 53 27 119 27 172 1z m1255 -15 c41 -21 70
-63 70 -100 0 -47 -21 -61 -71 -46 -49 15 -75 7 -93 -27 l-14 -26 -21 34 c-27
45 -27 100 0 134 36 46 80 56 129 31z m6106 -19 c43 -43 48 -101 11 -115 -25
-10 -170 -7 -187 4 -19 12 -10 63 17 95 51 61 109 66 159 16z m-7119 -101 c35
-10 114 -105 87 -105 -3 0 -19 10 -36 21 -25 18 -34 20 -54 10 -38 -17 -61
-13 -78 11 -9 12 -16 26 -16 30 0 17 42 49 58 44 9 -2 27 -7 39 -11z m8159
-12 c37 -18 39 -24 24 -53 -9 -17 -19 -18 -107 -13 l-96 6 -38 -44 c-30 -35
-38 -40 -38 -24 -1 34 67 115 112 136 46 21 86 19 143 -8z m-6111 -13 c24 -9
43 -35 33 -46 -3 -3 -34 3 -69 12 -97 25 -97 25 -74 34 28 12 79 12 110 0z
m4057 -8 c7 -7 -10 -10 -48 -9 -39 1 -70 -5 -92 -17 -44 -23 -51 -14 -17 20
25 25 31 26 87 21 33 -3 65 -10 70 -15z m-5657 -2 c-3 -5 -12 -10 -19 -10 -8
0 -19 -7 -26 -15 -15 -18 -43 -20 -38 -2 6 15 47 37 71 37 10 0 15 -4 12 -10z
m7173 -1 c41 -14 53 -43 14 -35 -15 3 -55 7 -89 8 -35 1 -63 6 -63 10 0 26 83
36 138 17z m-7369 -45 c13 -25 48 -67 78 -94 29 -27 53 -51 53 -54 0 -4 -13
-24 -29 -47 -17 -22 -35 -57 -42 -77 -31 -100 -99 -212 -129 -212 -5 0 -10
-10 -12 -22 -2 -18 -16 -27 -61 -42 -65 -22 -77 -17 -77 35 0 31 15 45 103 93
96 53 77 68 -40 31 -48 -15 -133 -38 -188 -50 -55 -13 -108 -26 -117 -30 -44
-18 6 63 69 111 27 20 52 28 109 35 88 10 143 37 179 89 29 42 31 65 9 120
-15 38 -15 42 7 87 42 89 54 93 88 27z m7568 34 c5 -7 19 -37 31 -66 l21 -53
-23 -53 c-21 -48 -27 -54 -62 -59 -65 -11 -107 -8 -126 10 -26 24 -23 34 27
82 26 24 55 62 67 85 24 47 37 66 48 66 4 0 12 -6 17 -12z m-2552 -13 c-16 -8
-45 -14 -64 -15 -29 0 -32 2 -21 15 8 10 30 15 64 14 l51 -1 -30 -13z m2972
-27 c-3 -8 -6 -5 -6 6 -1 11 2 17 5 13 3 -3 4 -12 1 -19z m-6642 -10 c2 -7 6
-29 9 -49 4 -20 22 -62 41 -94 57 -93 39 -81 -76 54 l-27 31 -134 0 c-206 0
-220 -3 -292 -69 -79 -73 -127 -108 -173 -128 -34 -14 -48 -14 -161 2 -97 14
-129 15 -149 6 -30 -14 -41 -7 -27 17 20 32 54 40 134 31 183 -22 190 -20 328
115 80 78 84 81 140 87 31 3 130 7 220 8 122 1 164 -2 167 -11z m5221 -4 c48
-5 56 -10 142 -95 118 -116 133 -122 277 -113 119 7 165 2 165 -19 0 -9 -39
-12 -161 -10 -184 2 -184 2 -275 108 -75 88 -77 89 -322 93 l-213 4 -87 -85
c-48 -47 -99 -90 -114 -96 -44 -17 -144 -24 -164 -12 -17 9 -15 10 14 11 50 0
84 23 132 87 24 32 58 77 76 100 l34 41 222 -4 c123 -3 246 -7 274 -10z m607
-51 c112 -35 238 -204 235 -316 -1 -63 25 -120 78 -167 50 -43 89 -59 194 -75
144 -24 203 -58 267 -153 38 -56 38 -58 37 -152 l-1 -95 -41 0 c-31 0 -42 3
-43 15 0 9 -5 6 -12 -9 -10 -22 -13 -16 -23 53 -9 56 -21 90 -45 127 -48 75
-85 95 -209 114 l-105 16 -52 54 c-28 29 -71 64 -95 76 -76 39 -104 94 -112
227 -11 172 -49 209 -253 242 -65 11 -73 14 -73 34 0 13 2 25 5 28 11 10 201
-4 248 -19z m-6784 -56 c-103 -98 -110 -112 -120 -212 -5 -62 -14 -95 -31
-122 -21 -34 -23 -36 -26 -15 -4 29 -22 28 -22 -1 0 -44 -99 -165 -161 -197
-20 -10 -78 -23 -133 -29 -138 -16 -209 -56 -267 -152 -70 -116 -94 -127 -86
-40 6 74 39 142 90 188 50 45 81 57 205 82 56 11 115 27 130 35 74 39 125 125
135 228 15 150 179 304 327 307 l35 1 -76 -73z m4326 53 c15 -6 6 -9 -33 -9
-33 -1 -51 3 -47 9 7 12 52 12 80 0z m-940 -50 c398 -33 781 -223 1051 -521
110 -121 293 -408 266 -417 -5 -1 -39 8 -75 22 -90 34 -231 50 -327 36 -181
-25 -303 -82 -415 -195 -44 -44 -91 -95 -105 -113 l-25 -34 -110 109 c-101
100 -120 114 -225 166 -150 74 -237 92 -405 84 -147 -7 -239 -31 -365 -93 -80
-40 -109 -61 -185 -138 -104 -104 -153 -191 -183 -322 l-18 -79 -54 -3 c-61
-4 -80 11 -80 59 0 41 -47 184 -87 264 -28 54 -60 94 -147 180 -61 61 -130
122 -153 137 l-41 28 25 52 c38 79 85 141 207 271 188 200 391 321 716 425
260 83 455 105 735 82z m1615 -119 c14 -10 33 -32 43 -49 18 -31 18 -32 -5
-78 -16 -34 -33 -51 -58 -62 -79 -33 -157 29 -147 116 10 90 94 127 167 73z
m1150 -21 c25 -25 27 -91 4 -115 -18 -18 -65 -17 -71 2 -2 6 5 14 16 18 14 4
21 15 21 31 0 30 -23 32 -44 3 -18 -27 -36 -16 -36 21 0 54 71 79 110 40z
m1365 -114 c42 -40 46 -59 10 -43 -14 7 -25 20 -25 30 0 21 -14 22 -33 3 -13
-13 -20 -12 -58 10 -24 14 -52 27 -61 31 -41 13 -13 19 57 11 67 -7 80 -12
110 -42z m-6645 -18 c0 -15 -44 -65 -137 -157 -148 -146 -173 -175 -173 -205
0 -15 5 -17 30 -13 39 8 75 -33 66 -77 -11 -55 -87 -116 -143 -116 -63 0 -131
68 -118 117 7 30 440 472 463 473 6 0 12 -10 12 -22z m-731 -1 c47 -16 55 -40
9 -26 -18 5 -67 9 -108 9 -68 1 -73 2 -56 15 24 18 107 19 155 2z m286 -17
c-3 -5 -23 -10 -43 -10 -28 0 -33 3 -22 10 20 13 73 13 65 0z m-160 -20 c-28
-12 -45 -12 -45 0 0 6 15 10 33 9 27 0 29 -2 12 -9z m6087 -28 c12 -16 37 -50
55 -75 52 -75 73 -81 255 -79 89 1 160 -2 163 -8 3 -5 -6 -17 -20 -26 -20 -13
-56 -18 -149 -22 -159 -6 -206 5 -277 65 -30 25 -74 54 -99 65 -25 12 -58 31
-73 44 -16 13 -38 24 -50 24 -12 0 -28 4 -36 9 -11 7 -4 11 25 16 21 3 46 8
54 10 8 1 40 3 72 4 50 1 59 -2 80 -27z m-904 -24 c5 -7 13 -48 17 -90 7 -77
6 -78 -23 -108 -56 -56 -118 -32 -129 49 -5 34 -2 43 23 66 16 15 28 33 26 41
-2 8 2 23 8 34 12 23 61 28 78 8z m-6118 -52 c0 -44 -1 -45 -60 -81 -187 -113
-235 -316 -128 -535 53 -108 181 -241 268 -279 176 -76 220 -102 298 -179 83
-81 151 -193 139 -226 -10 -24 -32 -7 -97 75 -84 107 -176 172 -316 225 -138
52 -204 98 -313 219 -97 108 -148 194 -167 286 -51 240 65 456 281 525 22 7
52 13 68 13 25 1 27 -1 27 -43z m8561 -64 c0 -78 -10 -107 -41 -115 -17 -4
-24 1 -35 26 -11 27 -11 36 2 62 28 52 64 107 69 102 3 -2 5 -36 5 -75z
m-8998 4 c24 -29 37 -55 37 -74 0 -69 -72 -65 -83 5 -9 53 -9 113 1 113 4 0
24 -20 45 -44z m6781 -10 c34 -14 52 -33 42 -43 -3 -3 -12 -1 -20 6 -7 6 -38
20 -67 30 -50 18 -52 20 -21 20 18 1 48 -5 66 -13z m549 -10 c33 -13 71 -53
119 -124 23 -35 32 -41 76 -47 28 -4 59 -13 69 -21 16 -12 9 -13 -57 -14 -41
0 -84 -3 -95 -6 -13 -3 -42 9 -80 32 l-60 37 -177 5 c-111 3 -178 8 -178 14 0
6 -13 37 -30 69 l-29 58 22 4 c12 2 104 5 205 6 133 1 191 -3 215 -13z m-5054
-35 c26 -35 26 -42 4 -34 -26 9 -53 34 -53 50 0 23 28 14 49 -16z m5824 -23
c14 -18 28 -43 31 -55 14 -46 -47 -113 -103 -113 -31 0 -101 67 -101 97 0 35
17 61 53 83 50 31 91 26 120 -12z m-6600 -60 c-16 -18 -37 -44 -46 -58 -44
-65 3 -168 108 -231 58 -35 60 -38 57 -74 -9 -105 -80 -203 -179 -247 -38 -17
-61 -19 -139 -16 -72 4 -94 2 -94 -8 0 -7 5 -16 11 -20 15 -9 -8 -24 -37 -24
-23 0 -109 102 -125 149 -6 16 -22 31 -39 38 -29 11 -30 14 -30 72 0 95 17
155 69 233 55 84 100 127 174 165 80 41 125 52 216 52 l85 1 -31 -32z m-1517
-26 c10 -7 15 -272 5 -272 -3 0 -13 7 -23 17 -15 14 -18 32 -18 133 0 128 5
144 36 122z m9017 -102 c9 -106 0 -156 -26 -147 -8 2 -13 38 -15 117 -3 121 1
144 21 138 8 -3 15 -40 20 -108z m-1698 -63 c57 -32 100 -98 99 -151 -1 -48
-24 -102 -42 -98 -7 1 -15 -5 -18 -13 -4 -8 -12 -15 -20 -15 -8 0 -14 -4 -14
-9 0 -5 -9 -11 -20 -14 -11 -3 -20 -1 -20 4 0 5 3 9 8 9 13 0 62 87 62 112 0
25 -35 79 -67 103 -10 8 -41 15 -69 15 -46 0 -57 -5 -100 -40 -27 -22 -54 -40
-61 -40 -39 0 15 101 73 136 53 32 133 33 189 1z m-6875 -53 c69 -141 217
-243 395 -270 28 -4 45 -11 45 -20 0 -48 -303 40 -379 110 -61 56 -91 114 -91
173 0 29 2 53 4 53 2 0 14 -21 26 -46z m8488 -82 c39 -20 72 -40 72 -44 0 -20
-26 -15 -88 17 -38 19 -73 35 -78 35 -5 0 -27 5 -49 11 -34 10 -37 13 -20 20
32 12 85 0 163 -39z m-1202 29 c50 -5 107 -17 125 -26 116 -59 248 -235 223
-299 -5 -12 -15 -15 -48 -10 -73 10 -86 14 -86 30 0 28 -52 114 -70 114 -9 0
-21 5 -28 12 -10 10 -81 14 -143 6 -27 -3 -29 -22 -3 -32 8 -3 14 -13 14 -21
0 -24 -156 120 -186 171 -13 22 -24 46 -24 52 0 14 94 15 226 3z m-1541 -78
c67 -20 170 -81 232 -138 67 -59 118 -137 156 -238 29 -76 31 -90 29 -197 -4
-292 -119 -485 -340 -571 l-22 -9 19 38 c24 47 51 73 51 48 0 -30 18 -16 25
20 3 20 27 75 52 122 52 101 73 184 73 301 0 204 -98 381 -253 455 -85 40 -99
54 -121 123 -26 79 -19 82 99 46z m-6188 0 c3 -7 -3 -9 -16 -6 -12 3 -21 10
-21 15 0 13 32 6 37 -9z m2674 -29 c85 -25 124 -49 204 -125 61 -58 79 -83
104 -144 35 -84 63 -184 55 -196 -3 -5 -25 -9 -50 -9 -43 0 -46 2 -60 38 -56
138 -125 221 -224 270 -79 39 -181 39 -262 -1 -71 -35 -141 -112 -169 -187
-72 -190 9 -452 175 -564 39 -26 73 -35 61 -16 -3 6 0 10 9 10 8 0 16 -5 18
-11 5 -16 103 -14 125 3 7 5 14 5 17 -1 3 -5 16 -7 29 -3 20 5 21 4 8 -12 -8
-9 -30 -24 -48 -31 -19 -8 -45 -23 -58 -33 l-24 -19 24 -23 c13 -13 22 -27 19
-31 -3 -5 6 -5 19 0 13 5 47 9 76 9 67 1 56 -17 -25 -43 -79 -25 -196 -23
-279 5 -156 52 -294 207 -341 383 -21 79 -28 232 -14 302 39 197 193 374 374
431 58 18 173 17 237 -2z m5570 1 c32 -17 89 -89 89 -113 0 -9 -14 -2 -39 21
-45 40 -84 52 -148 42 -53 -8 -103 16 -83 40 21 25 138 32 181 10z m268 10
c-3 -2 -32 -11 -64 -20 -33 -8 -67 -18 -77 -21 -12 -3 -18 0 -18 10 0 14 8 17
90 29 39 6 74 7 69 2z m-4108 -93 c157 -41 312 -185 380 -353 16 -39 23 -83
27 -159 5 -107 -4 -127 -19 -46 -25 137 -154 336 -265 412 -95 64 -174 87
-292 82 -85 -3 -106 -7 -167 -36 -38 -18 -93 -50 -121 -72 -89 -67 -243 -290
-244 -355 -1 -18 -2 -18 -10 -3 -13 21 11 150 39 212 30 69 95 159 147 205 54
48 145 94 224 115 75 20 220 19 301 -2z m1441 7 c220 -45 407 -249 425 -461 3
-37 3 -68 0 -68 -4 0 -21 30 -37 67 -83 182 -187 297 -328 360 -67 31 -213 43
-287 24 -74 -19 -149 -59 -198 -106 -25 -25 -50 -45 -56 -45 -15 0 -114 -135
-143 -195 -14 -27 -33 -71 -43 -97 -10 -27 -22 -48 -26 -48 -13 0 0 105 22
181 23 80 99 199 162 255 60 53 169 110 243 128 72 18 195 20 266 5z m2987
-30 c41 -9 107 -46 98 -55 -2 -2 -21 3 -43 13 -62 27 -254 24 -316 -4 -56 -26
-64 -14 -12 16 66 39 181 52 273 30z m-334 -99 c-10 -11 -20 -18 -23 -15 -3 3
3 14 13 25 10 11 20 18 23 15 3 -3 -3 -14 -13 -25z m-688 14 c-3 -3 -12 -4
-19 -1 -8 3 -5 6 6 6 11 1 17 -2 13 -5z m-6515 -78 c3 -16 0 -23 -8 -22 -22 3
-27 15 -14 31 16 20 17 19 22 -9z m3091 -36 c89 -42 187 -177 206 -286 12 -67
2 -153 -25 -209 -22 -47 -90 -105 -124 -105 -14 0 -52 -16 -84 -35 -32 -19
-62 -35 -67 -35 -5 0 -9 -4 -9 -10 0 -5 -12 -10 -26 -10 -26 0 -25 1 12 26
111 74 147 145 148 291 1 104 -8 122 -83 181 -103 79 -219 5 -231 -148 l-5
-65 -105 0 -105 0 1 70 c0 79 29 156 81 215 17 19 33 45 37 58 8 24 40 44 121
74 68 25 190 20 258 -12z m1462 1 c96 -45 194 -168 216 -271 24 -113 -16 -234
-98 -294 -26 -20 -59 -36 -73 -36 -14 0 -45 -13 -70 -30 -24 -16 -46 -28 -48
-26 -2 2 14 27 35 55 50 66 75 137 76 214 1 82 -15 125 -61 169 -69 66 -144
72 -207 17 -37 -33 -54 -74 -64 -153 l-6 -51 -91 -3 c-116 -3 -121 1 -104 95
12 73 59 170 116 239 48 60 153 103 249 104 57 0 81 -5 130 -29z m3095 19 c0
-5 -7 -10 -15 -10 -8 0 -15 5 -15 10 0 6 7 10 15 10 8 0 15 -4 15 -10z m-7502
-32 c-6 -16 -68 -27 -91 -16 -30 15 -9 28 44 28 36 0 49 -4 47 -12z m7255 -7
c10 -11 6 -12 -23 -6 -19 5 -49 9 -67 9 -17 1 -35 5 -40 10 -4 5 20 6 55 4 34
-2 68 -10 75 -17z m-8573 -1 c0 -5 -15 -10 -32 -10 -18 0 -46 -9 -63 -20 -33
-22 -50 -26 -39 -9 21 35 134 68 134 39z m8335 -14 c70 -30 96 -122 52 -187
-49 -75 -142 -83 -201 -18 -26 29 -28 37 -24 90 5 66 30 103 82 118 44 13 53
13 91 -3z m-2289 -168 c26 -50 30 -191 9 -276 -53 -219 -259 -382 -480 -382
-157 0 -278 69 -384 220 -71 103 -100 257 -67 358 24 73 37 65 30 -16 -13
-135 43 -280 147 -384 133 -133 292 -153 479 -58 157 79 280 314 249 474 -9
47 -11 96 -4 96 2 0 12 -14 21 -32z m-4495 -27 c16 -16 29 -38 29 -48 0 -20
-44 -91 -68 -110 -45 -36 -112 17 -112 89 0 51 43 98 90 98 22 0 41 -9 61 -29z
m3031 -46 c18 -64 16 -192 -5 -257 -59 -183 -253 -331 -432 -329 -208 1 -371
113 -461 316 -29 68 -42 199 -25 263 15 55 27 54 23 -2 -11 -130 48 -284 145
-380 67 -68 117 -98 197 -121 133 -38 274 0 390 106 116 105 171 301 131 459
-6 24 -6 24 9 5 9 -11 22 -38 28 -60z m4120 0 c53 -46 118 -120 118 -136 0
-15 -89 52 -111 84 -13 18 -38 47 -57 65 -54 50 -12 39 50 -13z m-1499 -6 c44
-24 49 -58 12 -94 -24 -25 -24 -25 -234 -25 -115 0 -212 3 -214 8 -3 4 -7 32
-8 62 l-4 55 95 6 c129 9 326 2 353 -12z m662 -57 c22 -11 51 -32 65 -47 48
-52 63 -55 292 -56 117 -1 224 -4 238 -8 19 -5 26 -15 28 -38 5 -53 -13 -56
-292 -58 -241 -1 -251 0 -275 21 -61 51 -108 57 -159 22 -40 -29 -136 -148
-168 -211 -36 -69 -89 -123 -140 -143 -36 -14 -67 -16 -164 -12 -66 3 -123 7
-125 10 -3 3 2 22 10 43 9 20 14 44 11 52 -3 8 -1 23 5 34 8 16 20 20 52 19
94 -4 96 1 29 67 -26 27 -61 66 -78 88 -30 38 -33 39 -110 46 -43 4 -126 8
-184 8 -109 1 -148 12 -120 32 19 13 360 5 412 -11 21 -6 59 -29 84 -51 34
-30 51 -38 68 -33 42 12 112 65 159 119 54 62 117 109 168 124 50 15 148 7
194 -17z m-4388 -18 c8 -11 9 -23 4 -33 -8 -14 -22 -15 -113 -8 -128 9 -259
25 -266 32 -13 12 15 19 106 26 141 11 254 3 269 -17z m1470 0 c11 -29 -18
-40 -99 -36 -75 3 -78 5 -78 28 0 24 2 24 85 24 69 0 87 -3 92 -16z m-4465
-51 c57 -26 136 -98 178 -162 41 -66 38 -71 -16 -21 -59 54 -140 91 -196 90
-24 -1 -79 3 -123 8 -44 5 -84 5 -89 1 -5 -5 -30 3 -56 18 -60 34 -79 29 -165
-47 -69 -61 -93 -74 -76 -41 30 55 170 148 251 166 92 21 232 15 292 -12z
m2767 -145 c4 -13 11 -44 15 -70 6 -36 4 -48 -6 -49 -7 -1 -2 -4 12 -8 19 -5
38 -31 75 -99 83 -153 202 -269 343 -334 34 -15 62 -33 62 -38 0 -5 -12 -45
-26 -87 -32 -94 -43 -238 -24 -327 7 -33 35 -104 62 -158 28 -54 49 -100 47
-102 -12 -10 -187 19 -261 44 -369 124 -593 376 -681 769 l-14 64 73 79 c59
64 85 104 136 208 l63 128 58 1 c51 1 58 -2 66 -21z m-909 -29 c0 -5 -7 -6
-15 -3 -8 4 -15 13 -15 21 0 13 3 13 15 3 8 -7 15 -16 15 -21z m-1817 -33 c30
-15 83 -51 116 -81 l62 -55 187 -1 c195 -1 232 -5 240 -28 4 -12 -29 -13 -209
-7 -230 7 -306 21 -370 68 -27 20 -42 23 -127 23 -85 0 -104 -3 -153 -27 -61
-31 -93 -59 -108 -100 -14 -36 -34 -37 -25 -1 l7 27 -23 -22 c-13 -12 -30 -22
-37 -22 -8 0 -16 -7 -19 -15 -4 -8 -12 -15 -20 -15 -10 0 -12 9 -7 33 36 191
298 311 486 223z m6551 10 c50 -32 57 -118 15 -177 -27 -39 -65 -57 -132 -65
-73 -9 -129 20 -152 79 -14 35 -44 150 -45 169 0 22 280 17 314 -6z m-2032
-65 c51 -24 322 -304 364 -377 43 -73 84 -202 84 -265 0 -123 -61 -222 -173
-277 l-46 -23 -448 3 -448 3 -49 25 c-56 29 -131 108 -157 165 -40 90 -39 182
3 265 37 72 168 206 268 272 30 20 72 59 93 86 57 76 121 130 159 136 18 3 44
8 58 10 14 3 75 3 137 2 89 -3 120 -8 155 -25z m3044 -52 c8 -14 -14 -29 -43
-29 -27 0 -30 15 -5 29 23 14 39 14 48 0z m-348 -30 c-4 -11 -79 -41 -86 -34
-2 2 6 13 17 24 22 22 75 29 69 10z m517 -11 c-19 -11 -30 -5 -21 11 4 6 14 7
22 4 15 -5 14 -7 -1 -15z m-7815 -9 c98 -22 170 -101 170 -185 0 -116 -53
-103 -129 31 -10 17 -10 16 -5 -10 l7 -30 -31 33 c-23 25 -37 32 -52 27 -11
-3 -20 -2 -20 3 0 5 -16 8 -36 7 -26 0 -42 -8 -55 -25 -62 -81 -79 -86 -79
-24 0 69 56 144 127 169 46 17 47 17 103 4z m8030 -139 c28 -18 -1 -23 -135
-24 -74 -1 -135 -4 -135 -8 0 -5 -26 -8 -57 -8 -92 1 -40 20 85 32 59 5 109
11 111 14 8 8 116 4 131 -6z m-1086 -71 c6 -5 -89 -9 -221 -9 -208 0 -233 -2
-254 -18 -124 -96 -163 -108 -241 -73 -116 51 -133 60 -112 60 26 1 77 -20
119 -49 53 -36 89 -25 166 47 61 58 88 63 324 56 116 -3 214 -9 219 -14z
m-5233 -18 c48 -26 177 -70 249 -85 21 -4 28 -15 38 -53 21 -75 131 -297 212
-423 119 -187 205 -298 329 -421 172 -171 284 -245 466 -307 128 -43 202 -55
350 -56 122 -1 136 1 227 32 57 20 116 48 143 69 26 19 49 32 53 29 3 -4 -21
-60 -53 -126 -32 -66 -56 -122 -52 -126 12 -12 128 25 196 62 111 61 224 158
276 237 9 15 21 27 25 27 4 0 11 -53 15 -117 11 -192 72 -497 133 -673 43
-123 116 -271 153 -314 47 -53 89 -69 181 -70 58 -1 68 -4 68 -18 0 -10 -18
-71 -39 -135 -22 -65 -42 -132 -46 -150 -9 -44 -27 -57 -71 -48 -28 5 -52 23
-101 75 -126 134 -298 225 -507 269 l-79 16 -17 75 c-36 155 -38 141 26 207
53 53 58 62 62 111 5 62 -9 97 -50 118 -46 24 -93 18 -133 -17 -19 -17 -35
-37 -35 -44 0 -7 -6 -18 -14 -24 -16 -14 -52 34 -90 122 -14 31 -32 57 -39 57
-7 0 -21 -15 -32 -32 -26 -45 -144 -167 -179 -185 -15 -8 -38 -12 -51 -9 -28
7 -107 97 -169 194 -26 39 -51 72 -56 72 -5 0 -19 -18 -30 -40 -42 -83 -150
-180 -200 -180 -14 0 -41 12 -58 27 -41 33 -119 141 -127 176 -16 62 -48 57
-80 -13 -20 -44 -44 -51 -83 -24 -22 15 -22 19 -22 230 0 235 -4 254 -59 293
-46 33 -93 28 -130 -14 l-31 -36 0 -483 c0 -429 -2 -485 -16 -497 -18 -15 -15
-38 16 -121 27 -73 99 -154 148 -168 24 -6 295 -10 750 -10 750 0 742 0 797
-44 19 -15 19 -17 2 -30 -16 -13 -15 -15 16 -33 23 -14 60 -22 127 -26 122 -8
194 -41 275 -129 65 -70 112 -156 101 -184 -7 -17 -10 -16 -29 11 -42 57 -162
177 -203 201 -44 26 -190 67 -205 58 -5 -3 -9 -11 -9 -19 0 -7 -20 -23 -46
-35 -65 -32 -58 -52 41 -112 43 -27 101 -68 127 -90 59 -49 143 -172 163 -240
16 -55 18 -146 5 -188 -6 -20 -8 -15 -9 25 -3 130 -164 335 -323 410 -74 35
-182 64 -194 53 -3 -4 -9 -22 -13 -40 -5 -24 -16 -37 -44 -52 -24 -13 -37 -26
-35 -36 2 -9 32 -41 67 -71 74 -63 135 -157 151 -233 12 -57 0 -143 -24 -177
-12 -18 -14 -13 -13 53 1 61 -3 83 -25 129 -36 72 -88 131 -157 178 -74 50
-122 65 -206 64 -79 -1 -122 -14 -132 -40 -4 -10 -14 -23 -22 -30 -14 -10 -13
-14 7 -35 12 -14 22 -29 22 -35 0 -6 -19 -25 -42 -42 l-42 -31 -621 0 c-359 1
-626 5 -635 10 -13 8 -15 89 -17 602 -1 326 -5 621 -8 654 -12 117 -114 290
-222 377 -69 56 -145 100 -195 112 -26 7 -26 9 -25 74 2 79 -16 115 -70 138
-32 13 -40 13 -79 -2 -56 -21 -78 -56 -80 -125 -1 -61 9 -55 -118 -80 -75 -15
-171 -66 -258 -136 -112 -91 -195 -216 -240 -366 -20 -69 -22 -95 -25 -473 -2
-220 -6 -406 -9 -414 -7 -20 -43 16 -113 109 -153 205 -219 415 -228 721 -5
141 -2 192 11 260 51 251 231 690 385 938 221 356 509 669 804 872 39 27 76
49 82 49 6 0 36 -13 66 -29z m6566 -57 c63 -31 70 -49 11 -28 -63 22 -159 29
-215 15 -26 -7 -81 -32 -121 -57 -72 -43 -72 -44 -58 -15 18 33 97 87 159 107
60 20 158 11 224 -22z m-659 4 c23 -20 12 -28 -18 -13 -16 8 -37 15 -47 15
-15 0 -16 2 -3 10 16 10 46 4 68 -12z m-2188 -54 c0 -70 -83 -277 -128 -317
-19 -17 -19 -16 -26 53 -3 38 -15 95 -27 125 -11 31 -19 62 -16 69 3 7 22 18
43 24 22 6 62 25 89 41 62 37 65 37 65 5z m1820 -57 c88 -38 180 -142 180
-204 0 -29 -13 -29 -57 -2 -23 14 -43 19 -62 16 -20 -4 -46 3 -87 23 -68 34
-146 40 -195 15 -16 -9 -40 -33 -54 -55 -25 -39 -26 -40 -85 -40 -69 0 -78 10
-61 63 27 79 108 157 201 191 53 19 166 16 220 -7z m965 -32 c38 -19 61 -60
45 -80 -14 -17 -48 -14 -80 6 -14 9 -40 19 -57 22 -37 7 -53 -11 -53 -60 l0
-28 -20 25 c-28 36 -25 55 15 95 29 29 43 35 76 35 23 0 56 -7 74 -15z m-2179
-21 c18 -14 18 -15 -6 -8 -31 8 -50 24 -29 24 8 0 24 -7 35 -16z m437 -41 c-7
-2 -19 -2 -25 0 -7 3 -2 5 12 5 14 0 19 -2 13 -5z m-275 -10 c-10 -2 -26 -2
-35 0 -10 3 -2 5 17 5 19 0 27 -2 18 -5z m-5968 -73 c13 -9 13 -10 0 -10 -8 0
-22 5 -30 10 -13 9 -13 10 0 10 8 0 22 -5 30 -10z m8190 0 c12 -8 12 -10 -3
-16 -9 -3 -29 -3 -44 1 -21 5 -24 8 -12 16 18 11 40 11 59 -1z m-400 -90 c0
-5 -8 -10 -17 -10 -21 -1 -108 -31 -140 -48 -37 -21 -39 -13 -3 11 59 40 160
70 160 47z m-8474 -175 c28 -13 55 -28 59 -35 8 -13 8 -13 -80 14 -88 27 -105
34 -105 46 0 15 63 2 126 -25z m449 -56 c95 -24 172 -127 163 -219 -6 -58 -44
-121 -91 -151 -26 -16 -44 -19 -95 -16 -34 3 -68 9 -75 15 -6 5 -28 13 -47 17
-66 14 -100 66 -100 157 0 92 59 171 146 198 40 12 49 12 99 -1z m8382 -168
c62 -28 125 -92 144 -147 27 -82 10 -164 -151 -689 -28 -93 -74 -244 -101
-335 -28 -91 -70 -226 -94 -300 -24 -74 -64 -205 -89 -290 -84 -296 -188 -645
-195 -657 -5 -9 -105 -14 -403 -17 l-397 -5 -16 57 c-10 31 -27 104 -40 162
-31 148 -59 194 -122 206 -44 8 -78 -7 -98 -45 -14 -28 -14 -39 9 -148 14 -65
41 -185 61 -268 35 -143 111 -473 160 -693 23 -100 23 -103 5 -150 l-18 -47
-72 1 c-81 2 -114 19 -57 29 19 4 45 4 56 0 14 -4 21 -2 21 7 1 8 6 6 15 -6
15 -19 15 -19 15 1 0 18 -8 22 -66 28 -36 4 -168 5 -294 4 -126 -2 -231 -1
-234 2 -2 2 -10 51 -16 109 -6 58 -38 231 -70 385 -81 385 -110 545 -119 648
-7 74 -12 93 -32 113 -36 36 -77 40 -119 12 -44 -30 -59 -62 -104 -228 -21
-74 -39 -142 -42 -151 -4 -14 -64 -16 -555 -22 -303 -3 -557 -3 -565 0 -8 3
-14 15 -14 28 0 13 32 128 71 256 39 129 81 268 94 309 12 41 53 174 90 295
37 121 89 290 115 375 111 364 195 636 246 790 48 146 52 166 38 175 -48 30
-47 29 -31 61 17 33 90 104 128 125 13 7 49 21 79 30 52 17 135 18 1385 16
l1330 -2 52 -24z m-8662 -276 c33 -8 148 -66 142 -72 -2 -1 -30 6 -62 17 -75
26 -209 42 -310 38 -67 -3 -80 -1 -83 13 -3 15 12 17 140 14 79 -2 157 -6 173
-10z m468 -145 c61 -53 54 -136 -16 -178 -61 -38 -120 -24 -152 38 -19 37 -19
64 1 106 33 68 110 84 167 34z m-501 -61 c38 -20 77 -55 78 -71 0 -3 -26 9
-57 28 -31 19 -68 35 -82 36 -69 4 -123 -8 -166 -38 -21 -14 -39 -23 -41 -21
-12 11 43 58 89 76 62 25 117 22 179 -10z m5037 -106 c19 -23 20 -29 7 -47
-19 -30 -57 -27 -75 6 -14 24 -14 28 3 47 25 28 40 26 65 -6z m1 -213 c22 -22
26 -60 8 -78 -7 -7 -26 -12 -43 -12 -58 0 -73 43 -30 85 29 30 39 31 65 5z
m-3214 -124 c99 -26 216 -122 264 -216 48 -94 50 -131 49 -810 l-1 -635 23
-13 c18 -9 90 -12 289 -11 146 0 270 1 275 0 17 -2 59 -87 52 -105 -9 -22 -74
-21 -159 3 -36 11 -69 17 -72 13 -11 -10 -6 -58 7 -74 6 -9 31 -21 54 -27 89
-24 203 -137 219 -220 6 -31 6 -31 -17 -21 -13 7 -42 34 -63 61 -51 63 -115
106 -174 115 -57 9 -216 -2 -263 -17 -35 -11 -41 -9 -128 41 -162 93 -209 101
-604 99 -186 -1 -293 3 -299 9 -7 7 -11 245 -12 704 l-1 693 27 80 c84 247
314 390 534 331z m-1615 -86 c37 -19 55 -37 47 -46 -3 -2 -29 2 -59 10 -104
27 -136 28 -196 11 -31 -9 -66 -23 -77 -31 -31 -21 -49 -18 -36 6 12 22 54 46
115 67 52 17 155 8 206 -17z m-40 -454 c64 -20 102 -36 97 -41 -2 -2 -26 2
-53 10 -27 9 -86 18 -131 21 -79 7 -125 -2 -241 -43 -44 -15 8 20 63 42 69 29
193 34 265 11z m126 -392 c-3 -3 -12 -4 -19 -1 -8 3 -5 6 6 6 11 1 17 -2 13
-5z m-38 -18 c-15 -14 -159 -84 -159 -77 0 8 52 46 95 70 18 9 74 16 64 7z
m403 -745 c21 -35 38 -66 38 -69 0 -3 12 -18 26 -33 l27 -28 -29 -8 c-75 -21
-290 2 -355 38 -71 39 -64 52 48 88 54 17 118 42 143 55 25 14 49 23 54 22 5
-1 27 -30 48 -65z m2233 -75 c28 -13 63 -38 78 -56 30 -35 77 -122 77 -141 0
-6 -35 22 -78 62 -63 60 -109 97 -171 135 -1 2 0 7 4 13 10 17 35 13 90 -13z
m-2746 -134 c59 -57 124 -94 207 -119 54 -17 121 -18 830 -19 l772 -1 73 -35
c148 -70 235 -183 232 -300 -1 -32 -5 -63 -8 -68 -4 -6 -296 -10 -811 -10
l-805 0 -62 31 c-97 49 -243 163 -355 278 -103 106 -182 211 -182 242 0 15 35
47 52 48 4 1 29 -21 57 -47z m4508 -157 c-3 -30 -8 -58 -10 -62 -3 -5 -297 -8
-654 -8 l-648 0 -7 55 c-3 30 -4 58 -2 62 3 5 303 8 666 8 l661 0 -6 -55z
m322 41 c7 -8 11 -36 9 -63 l-3 -48 -65 -3 c-36 -1 -70 1 -76 5 -6 5 -14 34
-18 66 l-7 57 74 0 c52 0 78 -4 86 -14z m419 -348 l-3 -83 -1366 -3 -1366 -2
-6 66 c-2 36 -3 74 0 85 5 19 29 19 1375 19 l1369 0 -3 -82z m2167 -247 c20
-4 -65 -29 -136 -41 -55 -8 -892 -10 -3214 -8 -3040 3 -3142 4 -3197 22 -32
10 -56 21 -54 25 4 5 6575 7 6601 2z"/>
<path d="M6389 11699 c-42 -45 -40 -91 7 -135 58 -55 114 -43 153 33 19 37 13
63 -23 99 -46 46 -96 47 -137 3z"/>
<path d="M9120 11708 c-60 -41 -59 -113 3 -155 45 -31 78 -29 116 6 43 40 43
96 2 140 -35 38 -74 40 -121 9z"/>
<path d="M3875 10466 c-37 -16 -83 -68 -91 -102 -22 -88 55 -184 148 -184 74
0 156 95 145 166 -15 91 -123 156 -202 120z"/>
<path d="M11635 10452 c-41 -25 -56 -45 -65 -87 -12 -51 6 -103 49 -146 50
-51 96 -59 153 -27 78 43 110 138 68 206 -42 68 -139 94 -205 54z"/>
<path d="M11367 9543 c-11 -11 -8 -58 5 -71 19 -19 28 -14 28 17 0 49 -15 73
-33 54z"/>
<path d="M9367 9623 c-9 -8 -9 -46 -1 -67 3 -9 17 -16 30 -16 32 0 51 38 35
69 -11 20 -50 29 -64 14z"/>
<path d="M11337 9202 c-22 -24 -21 -45 1 -65 26 -24 49 -21 68 8 15 23 15 27
0 50 -19 30 -46 32 -69 7z"/>
<path d="M11691 8364 c-12 -15 -21 -33 -21 -40 0 -20 41 -54 65 -54 48 0 73
70 37 103 -27 24 -58 21 -81 -9z"/>
<path d="M10322 7808 c-27 -27 0 -98 38 -98 31 0 69 22 76 42 14 46 -79 91
-114 56z"/>
<path d="M8135 7711 c-29 -12 -54 -44 -65 -80 -30 -107 99 -193 190 -126 19
14 40 25 47 25 8 0 31 -11 51 -25 109 -74 247 40 187 155 -34 65 -131 81 -188
30 -19 -16 -37 -30 -41 -30 -3 0 -25 14 -48 30 -42 31 -90 38 -133 21z"/>
<path d="M8054 7146 c-88 -41 -109 -102 -55 -157 37 -36 104 -41 144 -9 23 18
40 20 174 20 131 0 151 -2 178 -20 64 -42 151 -19 176 47 13 35 12 39 -21 77
-51 58 -94 66 -334 66 -201 0 -213 -1 -262 -24z"/>
<path d="M3803 6710 c-36 -15 -55 -53 -51 -106 3 -42 7 -51 37 -71 49 -33 90
-30 128 10 39 41 44 57 28 93 -25 59 -92 94 -142 74z m83 -75 c7 -30 -18 -65
-48 -65 -25 0 -33 24 -18 60 16 39 57 42 66 5z"/>
<path d="M10898 6045 c-78 -21 -138 -55 -168 -97 -35 -48 -63 -119 -58 -144 8
-41 149 -4 212 54 32 30 86 136 86 168 0 29 -16 33 -72 19z"/>
<path d="M10457 5769 c-133 -31 -243 -148 -291 -308 -51 -172 -15 -433 71
-523 33 -35 80 -37 155 -7 67 26 152 22 225 -11 81 -37 111 -23 252 115 l115
113 -33 38 c-64 73 -74 129 -42 233 23 74 77 143 143 184 26 17 48 33 48 37 0
17 -69 73 -124 100 -48 24 -72 30 -127 30 -37 0 -89 -5 -116 -11 -40 -9 -63
-8 -120 5 -79 18 -100 18 -156 5z"/>
<path d="M10445 4163 c-29 -7 -65 -43 -81 -80 -29 -67 -8 -177 48 -259 61 -89
167 -74 218 32 19 38 21 55 16 102 -9 73 -46 153 -82 179 -31 22 -86 34 -119
26z"/>
</g>
</svg>
